<?xml version="1.0" encoding="UTF-8"?>
<svg id="_レイヤー_1" data-name="レイヤー_1" xmlns="http://www.w3.org/2000/svg" version="1.1" viewBox="0 0 34 34">
  <!-- Generator: Adobe Illustrator 29.1.0, SVG Export Plug-In . SVG Version: 2.1.0 Build 142)  -->
  <defs>
    <style>
      .st0 {
        fill: #fff;
      }

      .st1 {
        fill: #4e72b8;
      }
    </style>
  </defs>
  <path class="st1" d="M17,.5h0c9.1,0,16.5,7.4,16.5,16.5h0c0,9.1-7.4,16.5-16.5,16.5h0C7.9,33.5.5,26.1.5,17h0C.5,7.9,7.9.5,17,.5Z"/>
  <path class="st0" d="M18.8,10.2h3.2v-3.2h-2.6c-1.1,0-2.2.5-3.1,1.3-.8.8-1.3,1.9-1.3,3.1v2h-2.1v3.2h2.1v10.5h3.1v-10.5h3.2l.6-3.2h-3.8v-2.5c0-.2,0-.3.2-.4.1-.1.3-.2.4-.2h0Z"/>
</svg>