<?xml version="1.0" encoding="UTF-8"?>
<svg id="_レイヤー_1" data-name="レイヤー_1" xmlns="http://www.w3.org/2000/svg" xmlns:xlink="http://www.w3.org/1999/xlink" version="1.1" viewBox="0 0 34 34">
  <!-- Generator: Adobe Illustrator 29.1.0, SVG Export Plug-In . SVG Version: 2.1.0 Build 142)  -->
  <defs>
    <style>
      .st0 {
        fill: none;
      }

      .st1 {
        fill: #fff;
      }

      .st2 {
        fill: #4e72b8;
      }

      .st3 {
        clip-path: url(#clippath);
      }
    </style>
    <clipPath id="clippath">
      <rect class="st0" x="8" y="8" width="18" height="18"/>
    </clipPath>
  </defs>
  <path class="st2" d="M17,.5h0c9.1,0,16.5,7.4,16.5,16.5h0c0,9.1-7.4,16.5-16.5,16.5h0C7.9,33.5.5,26.1.5,17h0C.5,7.9,7.9.5,17,.5Z"/>
  <g class="st3">
    <g>
      <path class="st1" d="M17,9.6c2.4,0,2.7,0,3.6,0,.9,0,1.4.2,1.7.3.4.2.7.4,1,.7.3.3.5.6.7,1,.1.3.3.8.3,1.7,0,.9,0,1.2,0,3.6s0,2.7,0,3.6c0,.9-.2,1.4-.3,1.7-.2.4-.4.7-.7,1-.3.3-.6.5-1,.7-.3.1-.8.3-1.7.3-.9,0-1.2,0-3.6,0s-2.7,0-3.6,0c-.9,0-1.4-.2-1.7-.3-.4-.2-.7-.4-1-.7-.3-.3-.5-.6-.7-1-.1-.3-.3-.8-.3-1.7,0-.9,0-1.2,0-3.6s0-2.7,0-3.6c0-.9.2-1.4.3-1.7.2-.4.4-.7.7-1,.3-.3.6-.5,1-.7.3-.1.8-.3,1.7-.3.9,0,1.2,0,3.6,0ZM17,8c-2.4,0-2.7,0-3.7,0-1,0-1.6.2-2.2.4-.6.2-1.1.5-1.6,1-.5.5-.8,1-1,1.6-.2.6-.4,1.2-.4,2.2,0,1,0,1.3,0,3.7s0,2.7,0,3.7c0,1,.2,1.6.4,2.2.2.6.5,1.1,1,1.6.5.5,1,.8,1.6,1,.6.2,1.2.4,2.2.4,1,0,1.3,0,3.7,0s2.7,0,3.7,0c1,0,1.6-.2,2.2-.4.6-.2,1.1-.5,1.6-1,.5-.5.8-1,1-1.6.2-.6.4-1.2.4-2.2,0-1,0-1.3,0-3.7s0-2.7,0-3.7c0-1-.2-1.6-.4-2.2-.2-.6-.5-1.1-1-1.6-.5-.5-1-.8-1.6-1-.6-.2-1.2-.4-2.2-.4-1,0-1.3,0-3.7,0Z"/>
      <path class="st1" d="M17,12.4c-2.6,0-4.6,2.1-4.6,4.6s2.1,4.6,4.6,4.6,4.6-2.1,4.6-4.6-2.1-4.6-4.6-4.6ZM17,20c-1.7,0-3-1.3-3-3s1.3-3,3-3,3,1.3,3,3-1.3,3-3,3Z"/>
      <path class="st1" d="M22.9,12.2c0,.6-.5,1.1-1.1,1.1s-1.1-.5-1.1-1.1.5-1.1,1.1-1.1,1.1.5,1.1,1.1Z"/>
    </g>
  </g>
</svg>